<svg width="800" height="450" viewBox="0 0 800 450" fill="none" xmlns="http://www.w3.org/2000/svg">
  <!-- Background -->
  <rect width="800" height="450" rx="12" fill="#1F2937"/>
  
  <!-- Header -->
  <rect width="800" height="60" fill="#111827"/>
  <circle cx="740" cy="30" r="20" fill="#7C3AED"/>
  <rect x="20" y="20" width="120" height="20" rx="4" fill="#4B5563"/>
  
  <!-- Sidebar -->
  <rect width="200" height="450" fill="#111827"/>
  <rect x="20" y="80" width="160" height="40" rx="6" fill="#7C3AED"/>
  <rect x="30" y="95" width="20" height="10" rx="2" fill="white"/>
  <rect x="60" y="95" width="100" height="10" rx="2" fill="white"/>
  
  <rect x="20" y="130" width="160" height="40" rx="6" fill="#1F2937"/>
  <rect x="30" y="145" width="20" height="10" rx="2" fill="#6B7280"/>
  <rect x="60" y="145" width="100" height="10" rx="2" fill="#6B7280"/>
  
  <rect x="20" y="180" width="160" height="40" rx="6" fill="#1F2937"/>
  <rect x="30" y="195" width="20" height="10" rx="2" fill="#6B7280"/>
  <rect x="60" y="195" width="100" height="10" rx="2" fill="#6B7280"/>
  
  <rect x="20" y="230" width="160" height="40" rx="6" fill="#1F2937"/>
  <rect x="30" y="245" width="20" height="10" rx="2" fill="#6B7280"/>
  <rect x="60" y="245" width="100" height="10" rx="2" fill="#6B7280"/>
  
  <!-- Main content -->
  <rect x="220" y="80" width="540" height="60" rx="8" fill="#111827"/>
  <rect x="240" y="100" width="300" height="20" rx="4" fill="#9333EA"/>
  <rect x="650" y="100" width="80" height="20" rx="4" fill="#7C3AED"/>
  
  <!-- Cards -->
  <rect x="220" y="160" width="170" height="160" rx="8" fill="#111827"/>
  <rect x="240" y="180" width="40" height="40" rx="8" fill="#7C3AED" opacity="0.6"/>
  <rect x="240" y="230" width="130" height="10" rx="2" fill="white"/>
  <rect x="240" y="250" width="100" height="10" rx="2" fill="#6B7280"/>
  <rect x="240" y="270" width="130" height="30" rx="4" fill="#7C3AED"/>
  
  <rect x="410" y="160" width="170" height="160" rx="8" fill="#111827"/>
  <rect x="430" y="180" width="40" height="40" rx="8" fill="#EC4899" opacity="0.6"/>
  <rect x="430" y="230" width="130" height="10" rx="2" fill="white"/>
  <rect x="430" y="250" width="100" height="10" rx="2" fill="#6B7280"/>
  <rect x="430" y="270" width="130" height="30" rx="4" fill="#EC4899"/>
  
  <rect x="600" y="160" width="170" height="160" rx="8" fill="#111827"/>
  <rect x="620" y="180" width="40" height="40" rx="8" fill="#2563EB" opacity="0.6"/>
  <rect x="620" y="230" width="130" height="10" rx="2" fill="white"/>
  <rect x="620" y="250" width="100" height="10" rx="2" fill="#6B7280"/>
  <rect x="620" y="270" width="130" height="30" rx="4" fill="#2563EB"/>
  
  <!-- More content -->
  <rect x="220" y="340" width="540" height="20" rx="4" fill="white"/>
  
  <rect x="220" y="380" width="170" height="50" rx="8" fill="#111827"/>
  <rect x="240" y="400" width="130" height="10" rx="2" fill="#6B7280"/>
  
  <rect x="410" y="380" width="170" height="50" rx="8" fill="#111827"/>
  <rect x="430" y="400" width="130" height="10" rx="2" fill="#6B7280"/>
  
  <rect x="600" y="380" width="170" height="50" rx="8" fill="#111827"/>
  <rect x="620" y="400" width="130" height="10" rx="2" fill="#6B7280"/>
</svg> 